{
  "accessors": [
    {
      "bufferView": 0,
      "componentType": 5125,
      "count": 19884,
      "type": "SCALAR"
    },
    {
      "bufferView": 1,
      "componentType": 5126,
      "count": 6396,
      "max": [
        9.17500495910645,
        13.4311103820801,
        -29.772144317627
      ],
      "min": [
        -9.17500495910645,
        10.590482711792,
        -30.5194244384766
      ],
      "type": "VEC3"
    },
    {
      "bufferView": 2,
      "componentType": 5126,
      "count": 6396,
      "type": "VEC3"
    },
    {
      "bufferView": 3,
      "componentType": 5126,
      "count": 6396,
      "type": "VEC2"
    },
    {
      "bufferView": 4,
      "componentType": 5125,
      "count": 23448,
      "type": "SCALAR"
    },
    {
      "bufferView": 5,
      "componentType": 5126,
      "count": 7016,
      "max": [
        9.47210502624512,
        13.4311103820801,
        -11.9221391677856
      ],
      "min": [
        -9.47210502624512,
        10.590482711792,
        -30.2721405029297
      ],
      "type": "VEC3"
    },
    {
      "bufferView": 6,
      "componentType": 5126,
      "count": 7016,
      "type": "VEC3"
    },
    {
      "bufferView": 7,
      "componentType": 5126,
      "count": 7016,
      "type": "VEC2"
    },
    {
      "bufferView": 8,
      "componentType": 5125,
      "count": 29004,
      "type": "SCALAR"
    },
    {
      "bufferView": 9,
      "componentType": 5126,
      "count": 10252,
      "max": [
        9.37983894348145,
        20.1990909576416,
        -11.3170146942139
      ],
      "min": [
        -9.37983894348145,
        9.37202453613281,
        -12.2413663864136
      ],
      "type": "VEC3"
    },
    {
      "bufferView": 10,
      "componentType": 5126,
      "count": 10252,
      "type": "VEC3"
    },
    {
      "bufferView": 11,
      "componentType": 5126,
      "count": 10252,
      "type": "VEC2"
    },
    {
      "bufferView": 12,
      "componentType": 5125,
      "count": 60480,
      "type": "SCALAR"
    },
    {
      "bufferView": 13,
      "componentType": 5126,
      "count": 18252,
      "max": [
        9.45590686798096,
        10.9292154312134,
        -10.9591903686523
      ],
      "min": [
        -9.45590686798096,
        7.22313117980957,
        -30.5020751953125
      ],
      "type": "VEC3"
    },
    {
      "bufferView": 14,
      "componentType": 5126,
      "count": 18252,
      "type": "VEC3"
    },
    {
      "bufferView": 15,
      "componentType": 5126,
      "count": 18252,
      "type": "VEC2"
    }
  ],
  "asset": {
    "generator": "Substance Painter 6.1.0",
    "version": "2.0"
  },
  "bufferViews": [
    {
      "buffer": 0,
      "byteLength": 79536,
      "target": 34963
    },
    {
      "buffer": 0,
      "byteLength": 76752,
      "byteOffset": 79536,
      "target": 34962
    },
    {
      "buffer": 0,
      "byteLength": 76752,
      "byteOffset": 156288,
      "target": 34962
    },
    {
      "buffer": 0,
      "byteLength": 51168,
      "byteOffset": 233040,
      "target": 34962
    },
    {
      "buffer": 0,
      "byteLength": 93792,
      "byteOffset": 284208,
      "target": 34963
    },
    {
      "buffer": 0,
      "byteLength": 84192,
      "byteOffset": 378000,
      "target": 34962
    },
    {
      "buffer": 0,
      "byteLength": 84192,
      "byteOffset": 462192,
      "target": 34962
    },
    {
      "buffer": 0,
      "byteLength": 56128,
      "byteOffset": 546384,
      "target": 34962
    },
    {
      "buffer": 0,
      "byteLength": 116016,
      "byteOffset": 602512,
      "target": 34963
    },
    {
      "buffer": 0,
      "byteLength": 123024,
      "byteOffset": 718528,
      "target": 34962
    },
    {
      "buffer": 0,
      "byteLength": 123024,
      "byteOffset": 841552,
      "target": 34962
    },
    {
      "buffer": 0,
      "byteLength": 82016,
      "byteOffset": 964576,
      "target": 34962
    },
    {
      "buffer": 0,
      "byteLength": 241920,
      "byteOffset": 1046592,
      "target": 34963
    },
    {
      "buffer": 0,
      "byteLength": 219024,
      "byteOffset": 1288512,
      "target": 34962
    },
    {
      "buffer": 0,
      "byteLength": 219024,
      "byteOffset": 1507536,
      "target": 34962
    },
    {
      "buffer": 0,
      "byteLength": 146016,
      "byteOffset": 1726560,
      "target": 34962
    }
  ],
  "buffers": [
    {
      "byteLength": 1872576,
      "uri": "DCPT.bin"
    }
  ],
  "images": [
    {
      "uri": "DCPT_B_Mat_baseColor.png"
    },
    {
      "uri": "DCPT_B_Mat_occlusionRoughnessMetallic.png"
    },
    {
      "uri": "DCPT_B_Mat_normal.png"
    },
    {
      "uri": "DCPT_C_Mat_baseColor.png"
    },
    {
      "uri": "DCPT_C_Mat_occlusionRoughnessMetallic.png"
    },
    {
      "uri": "DCPT_C_Mat_normal.png"
    },
    {
      "uri": "DCPT_F_Mat_baseColor.png"
    },
    {
      "uri": "DCPT_F_Mat_occlusionRoughnessMetallic.png"
    },
    {
      "uri": "DCPT_F_Mat_normal.png"
    },
    {
      "uri": "DCPT_S_Mat_baseColor.png"
    },
    {
      "uri": "DCPT_S_Mat_occlusionRoughnessMetallic.png"
    },
    {
      "uri": "DCPT_S_Mat_normal.png"
    }
  ],
  "materials": [
    {
      "alphaMode": "OPAQUE",
      "name": "DCPT_B_Mat",
      "normalTexture": {
        "index": 2
      },
      "occlusionTexture": {
        "index": 1
      },
      "pbrMetallicRoughness": {
        "baseColorTexture": {
          "index": 0
        },
        "metallicRoughnessTexture": {
          "index": 1
        }
      }
    },
    {
      "alphaMode": "OPAQUE",
      "name": "DCPT_C_Mat",
      "normalTexture": {
        "index": 5
      },
      "occlusionTexture": {
        "index": 4
      },
      "pbrMetallicRoughness": {
        "baseColorTexture": {
          "index": 3
        },
        "metallicRoughnessTexture": {
          "index": 4
        }
      }
    },
    {
      "alphaMode": "OPAQUE",
      "name": "DCPT_F_Mat",
      "normalTexture": {
        "index": 8
      },
      "occlusionTexture": {
        "index": 7
      },
      "pbrMetallicRoughness": {
        "baseColorTexture": {
          "index": 6
        },
        "metallicRoughnessTexture": {
          "index": 7
        }
      }
    },
    {
      "alphaMode": "OPAQUE",
      "name": "DCPT_S_Mat",
      "normalTexture": {
        "index": 11
      },
      "occlusionTexture": {
        "index": 10
      },
      "pbrMetallicRoughness": {
        "baseColorTexture": {
          "index": 9
        },
        "metallicRoughnessTexture": {
          "index": 10
        }
      }
    }
  ],
  "meshes": [
    {
      "name": "DCPT_C_Low",
      "primitives": [
        {
          "attributes": {
            "NORMAL": 2,
            "POSITION": 1,
            "TEXCOORD_0": 3
          },
          "indices": 0,
          "material": 1,
          "mode": 4
        }
      ]
    },
    {
      "name": "DCPT_S_Low",
      "primitives": [
        {
          "attributes": {
            "NORMAL": 6,
            "POSITION": 5,
            "TEXCOORD_0": 7
          },
          "indices": 4,
          "material": 3,
          "mode": 4
        }
      ]
    },
    {
      "name": "DCPT_B_Low",
      "primitives": [
        {
          "attributes": {
            "NORMAL": 10,
            "POSITION": 9,
            "TEXCOORD_0": 11
          },
          "indices": 8,
          "material": 0,
          "mode": 4
        }
      ]
    },
    {
      "name": "DCPT_F_Low",
      "primitives": [
        {
          "attributes": {
            "NORMAL": 14,
            "POSITION": 13,
            "TEXCOORD_0": 15
          },
          "indices": 12,
          "material": 2,
          "mode": 4
        }
      ]
    }
  ],
  "nodes": [
    {
      "children": [
        1
      ],
      "name": "RootNode"
    },
    {
      "children": [
        2
      ],
      "name": "DCPT"
    },
    {
      "children": [
        3,
        5,
        7,
        9
      ],
      "name": "DCPT_Low"
    },
    {
      "children": [
        4
      ],
      "name": "DCPT_C_Low"
    },
    {
      "mesh": 0,
      "name": "DCPT_C_Low"
    },
    {
      "children": [
        6
      ],
      "name": "DCPT_S_Low"
    },
    {
      "mesh": 1,
      "name": "DCPT_S_Low"
    },
    {
      "children": [
        8
      ],
      "name": "DCPT_B_Low"
    },
    {
      "mesh": 2,
      "name": "DCPT_B_Low"
    },
    {
      "children": [
        10
      ],
      "name": "DCPT_F_Low"
    },
    {
      "mesh": 3,
      "name": "DCPT_F_Low"
    }
  ],
  "samplers": [
    {
      "magFilter": 9729,
      "minFilter": 9985,
      "wrapS": 10497,
      "wrapT": 10497
    }
  ],
  "scene": 0,
  "scenes": [
    {
      "name": "Scene",
      "nodes": [
        0
      ]
    }
  ],
  "textures": [
    {
      "sampler": 0,
      "source": 0
    },
    {
      "sampler": 0,
      "source": 1
    },
    {
      "sampler": 0,
      "source": 2
    },
    {
      "sampler": 0,
      "source": 3
    },
    {
      "sampler": 0,
      "source": 4
    },
    {
      "sampler": 0,
      "source": 5
    },
    {
      "sampler": 0,
      "source": 6
    },
    {
      "sampler": 0,
      "source": 7
    },
    {
      "sampler": 0,
      "source": 8
    },
    {
      "sampler": 0,
      "source": 9
    },
    {
      "sampler": 0,
      "source": 10
    },
    {
      "sampler": 0,
      "source": 11
    }
  ]
}